<svg width="29" height="30" viewBox="0 0 29 30" fill="none" xmlns="http://www.w3.org/2000/svg">
<path d="M0.00302193 25.7726C0.170739 25.5596 0.383786 25.5008 0.643672 25.5088C1.18309 25.5247 1.1846 25.512 1.1846 24.9365C1.1846 19.8231 1.1846 14.708 1.1846 9.59453C1.1846 8.47392 1.76934 7.63624 2.72579 7.38669C3.09597 7.28973 3.47674 7.32629 3.85297 7.32152C3.95571 7.32152 4.05846 7.32152 4.18387 7.32152C4.10983 7.05448 4.02522 6.81128 4.03277 6.55537C4.05544 5.81942 4.36972 5.26468 4.98921 4.91817C7.72407 3.39064 10.4574 1.85834 13.1998 0.346714C14.046 -0.119015 14.9238 -0.107888 15.7836 0.333998C16.181 0.537456 16.5693 0.763167 16.9576 0.98411C17.225 1.1367 18.0372 1.89393 17.9118 2.13235C17.7939 2.35648 17.3812 2.27064 17.1228 2.13235C16.7708 1.94479 15.8682 1.38944 15.5207 1.19393C14.8453 0.814032 14.1699 0.812442 13.4929 1.18916C10.7989 2.69125 8.10483 4.19335 5.40926 5.69385C5.07987 5.87665 4.88496 6.15163 4.88647 6.54424C4.88798 6.93685 5.08441 7.20866 5.4138 7.39146C8.11843 8.89514 10.82 10.402 13.5247 11.9073C14.1411 12.2506 14.7712 12.2808 15.3952 11.9486C16.0903 11.5798 16.7748 11.1888 17.4834 10.7962C16.7294 9.89177 15.9966 9.01117 15.2623 8.13217C14.9208 7.72207 14.5748 7.31357 14.2363 6.90029C14.0354 6.65392 14.0324 6.39006 14.2167 6.21362C14.4086 6.02924 14.6715 6.06739 14.883 6.32012C15.9543 7.60286 17.0271 8.88401 18.0893 10.1747C18.2238 10.3384 18.3129 10.34 18.4837 10.243C20.1593 9.29888 21.8395 8.36106 23.5227 7.43278C23.8778 7.23727 24.1181 6.97182 24.1181 6.53788C24.1181 6.10077 23.8657 5.8385 23.5152 5.64458C21.7413 4.66225 18.8312 3.08227 17.0588 2.09677C16.7778 1.941 17.8234 2.34315 17.8974 2.09677C17.9835 1.80907 16.6493 0.812442 16.9576 0.98411C17.8989 1.50388 20.454 2.93445 21.3938 3.45899C22.2173 3.91836 23.0392 4.37773 23.8642 4.83392C24.8433 5.37595 25.1576 6.16753 24.8176 7.32311C25.1062 7.32311 25.3827 7.32311 25.6593 7.32311C26.9708 7.32788 27.8184 8.21641 27.8184 9.59612C27.8199 14.7096 27.8184 19.8247 27.8184 24.9381C27.8184 25.5151 27.8184 25.5263 28.3593 25.5104C28.6177 25.5024 28.8323 25.5628 29 25.7742V27.502C28.8806 27.5815 28.9033 27.7262 28.867 27.8406C28.5558 28.834 27.628 29.8577 26.034 29.8529C18.3462 29.8323 10.6599 29.8434 2.97207 29.8434C2.85875 29.8434 2.74543 29.8402 2.63211 29.8354C1.48075 29.7798 0.495597 28.993 0.134476 27.8485C0.092169 27.7134 0.105768 27.5561 0 27.4432V25.7742L0.00302193 25.7726ZM17.7131 16.2435C17.6632 16.2578 17.6179 16.2721 17.5741 16.2848C15.1203 16.9906 12.7012 16.8809 10.3396 15.8779C8.93435 15.2818 8.10634 14.1707 7.8661 12.5924C7.76486 11.9311 7.82983 11.2635 7.82379 10.5991C7.82228 10.3829 7.79357 10.2923 7.55333 10.2955C6.45787 10.3114 5.36393 10.3066 4.26848 10.2987C4.07961 10.2987 4.01162 10.3384 4.01162 10.5546C4.01766 14.7652 4.01766 18.9743 4.01162 23.1849C4.01162 23.382 4.05997 23.4376 4.24733 23.4329C4.75653 23.4201 5.26723 23.4297 5.77643 23.4281C5.99703 23.4281 7.18503 23.6487 7.25 23.8824C7.33764 24.1939 7.17558 24.3166 6.82353 24.3198C6.15266 24.3278 4.42109 24.323 3.75022 24.3214C3.28938 24.3214 3.16548 24.1895 3.16548 23.7015C3.16548 19.1443 3.16548 14.5856 3.16548 10.0285C3.16548 9.53889 3.28787 9.40696 3.74871 9.40696C4.78675 9.40696 5.82478 9.40696 6.86433 9.40537C6.94138 9.40537 7.02902 9.43875 7.11968 9.35769C6.92023 9.24483 6.72078 9.15741 6.54853 9.03025C5.59662 8.33086 4.54952 8.13058 3.39817 8.19575C2.59433 8.24026 2.01865 8.7489 2.02319 9.66288C2.04585 14.8368 2.03527 20.009 2.02772 25.1829C2.02772 25.4563 2.0942 25.5215 2.35107 25.5215C10.4499 25.5135 18.5486 25.5135 26.6489 25.5215C26.936 25.5215 26.9783 25.4325 26.9783 25.1575C26.9708 20.0933 26.9723 15.0291 26.9723 9.96488C26.9723 9.77573 26.9753 9.58658 26.9693 9.39902C26.9466 8.81566 26.5553 8.33881 26.0068 8.24662C25.8028 8.21324 25.5913 8.23867 25.3873 8.21165C24.3825 8.07972 23.4729 8.33086 22.6388 8.92693C22.4061 9.09383 22.1432 9.21304 21.8954 9.35451C23.0271 9.40378 24.1407 9.40378 25.2528 9.40537C25.7167 9.40537 25.8421 9.53571 25.8421 10.0221C25.8421 14.5793 25.8421 19.138 25.8421 23.6951C25.8421 24.1942 25.7197 24.3214 25.2332 24.3214C19.3993 24.3214 13.5655 24.3214 7.73162 24.3214C7.62888 24.3214 6.49678 24.3343 6.39706 24.3088C6.18401 24.2564 7.10155 24.0766 7.11061 23.8589C7.11968 23.6284 5.31143 23.4568 5.54412 23.4282C5.65593 23.4139 7.7014 23.4281 7.81472 23.4281C13.4401 23.4281 19.0669 23.4249 24.6922 23.4345C24.9461 23.4345 24.999 23.3645 24.999 23.107C24.9884 20.6242 24.9929 18.143 24.9929 15.6601C24.9929 13.9625 24.9899 12.2649 24.9974 10.5657C24.9974 10.367 24.9612 10.2939 24.7542 10.2955C23.6406 10.3066 22.527 10.305 21.4119 10.2955C21.2427 10.2955 21.1807 10.3337 21.1868 10.5244C21.2004 10.9313 21.1883 11.3382 21.1913 11.7451C21.2034 13.6653 20.4041 15.0466 18.736 15.8556C18.6801 15.8827 18.5834 15.8795 18.5909 15.9701C18.6151 16.2896 18.5048 16.617 18.6846 16.927C18.949 17.3832 19.1938 17.8521 19.4461 18.3178C19.6501 18.6945 19.6758 19.0919 19.5308 19.4925C19.3177 20.0822 18.8508 20.354 18.0923 20.3508C16.941 20.346 16.3547 19.2747 16.9259 18.2208C17.1404 17.825 17.3429 17.4213 17.5771 17.0382C17.7327 16.7855 17.7614 16.5312 17.7146 16.2403L17.7131 16.2435ZM14.5023 28.9501C18.3341 28.9501 22.1674 28.9501 25.9992 28.9501C26.2259 28.9501 26.4525 28.958 26.6746 28.9008C27.6356 28.6528 28.1569 27.8581 28.1569 26.6675C28.1569 26.4625 28.1131 26.4053 27.9121 26.4053C24.6937 26.4132 21.4739 26.4116 18.2555 26.4069C18.0817 26.4069 17.9986 26.445 17.9427 26.6421C17.698 27.4861 17.0059 28.0838 16.1734 28.1076C15.0613 28.141 13.9462 28.1394 12.8326 28.1076C12.0137 28.0838 11.3126 27.4925 11.0709 26.6707C11.0074 26.4514 10.9183 26.4053 10.7203 26.4053C7.52008 26.4116 4.31986 26.41 1.12114 26.41C1.0743 26.41 1.02595 26.4148 0.979107 26.41C0.879383 26.4005 0.849164 26.4466 0.850675 26.5467C0.853697 26.8837 0.840098 27.2207 0.939822 27.5497C1.21331 28.4414 1.92346 28.9501 2.91919 28.9501C6.77971 28.9501 10.6402 28.9501 14.5008 28.9501H14.5023ZM17.7312 11.672C17.0906 12.0281 16.4937 12.3587 15.8969 12.6893C14.9782 13.1996 14.0565 13.2043 13.1348 12.7052C12.6498 12.4429 12.1708 12.1648 11.6888 11.8961C10.6931 11.3414 9.69739 10.7883 8.66842 10.216C8.66842 10.8534 8.64878 11.4559 8.67295 12.0567C8.72433 13.3935 9.30605 14.4203 10.4695 14.956C12.7782 16.0178 15.158 16.1084 17.571 15.3486C17.6919 15.3104 17.7342 15.2564 17.7342 15.1229C17.7297 13.9911 17.7312 12.8594 17.7312 11.672ZM18.5819 14.9496C19.4416 14.4728 19.9871 13.7893 20.2258 12.8514C20.4434 11.9963 20.2908 11.1236 20.3467 10.2144C19.7604 10.5419 19.2165 10.8471 18.668 11.1459C18.5834 11.192 18.5804 11.2588 18.5804 11.3398C18.5804 12.5272 18.5804 13.7146 18.5804 14.9496H18.5819ZM11.8958 26.418C12.0983 26.9234 12.4262 27.1794 12.8916 27.2191C13.0034 27.2286 13.1182 27.227 13.23 27.227C14.1442 27.227 15.0583 27.2318 15.9724 27.2255C16.5526 27.2207 16.9546 26.9234 17.089 26.418H11.8958ZM18.1573 17.7599C17.9639 18.1128 17.7826 18.4243 17.6194 18.747C17.4335 19.1126 17.6315 19.4464 18.0304 19.4591C18.115 19.4623 18.1996 19.4623 18.2842 19.4591C18.6831 19.4464 18.881 19.1126 18.6952 18.747C18.532 18.4243 18.3507 18.1128 18.1573 17.7615V17.7599Z" fill="#2680EB"/>
</svg>
