<svg width="31" height="31" viewBox="0 0 31 31" fill="none" xmlns="http://www.w3.org/2000/svg">
<path d="M19.2008 0.00157594C19.4462 0.154293 19.4982 0.385732 19.4997 0.658104C19.506 1.87669 18.8483 2.70483 17.8209 2.90163C17.7516 2.91422 17.6714 3.05277 17.6588 3.14251C17.6163 3.44165 17.6399 3.75653 17.5691 4.04622C17.3095 5.10107 16.6077 5.72138 15.5519 5.98903V7.22336C16.6565 7.49731 17.341 8.19319 17.6179 9.32204C17.813 9.32204 18.0065 9.31574 18.2016 9.32204C18.5006 9.33306 18.6752 9.50782 18.669 9.77547C18.6627 10.0321 18.4927 10.199 18.2064 10.199C16.1121 10.2021 14.0163 10.2021 11.922 10.199C11.6419 10.199 11.472 10.0211 11.472 9.76287C11.472 9.50624 11.6403 9.33936 11.9236 9.32204C12.0211 9.31574 12.1202 9.32204 12.2178 9.32047C12.3059 9.32047 12.394 9.32047 12.4963 9.32047C12.5262 9.23072 12.5529 9.15043 12.5781 9.07014C12.8566 8.15383 13.4561 7.54926 14.3766 7.28949C14.6079 7.22494 14.6409 7.12575 14.6598 6.91006C14.7102 6.32753 14.6236 5.96541 13.9502 5.71036C13.0061 5.35455 12.5655 4.50909 12.5309 3.48731C12.5246 3.31255 12.5309 3.13621 12.5309 2.94571C12.4412 2.92367 12.3673 2.9032 12.2917 2.88746C10.8898 2.58517 10.5547 1.35556 10.6679 0.393601C10.6852 0.253479 10.8457 0.130675 10.9386 0C13.6937 0 16.4472 0 19.2024 0L19.2008 0.00157594ZM13.4199 0.894264C13.4199 1.83261 13.4152 2.74419 13.4246 3.65419C13.4246 3.78644 13.475 3.92341 13.5222 4.05094C13.8023 4.79878 14.5701 5.24591 15.3521 5.11996C16.1624 4.98928 16.7478 4.30914 16.7635 3.44479C16.7777 2.65129 16.7682 1.85622 16.7651 1.06272C16.7651 1.00762 16.7446 0.954088 16.7336 0.895835H13.4183L13.4199 0.894264ZM13.4545 9.30472H16.6549C16.5621 8.65921 15.8698 8.09873 15.1491 8.07354C14.3309 8.0452 13.6134 8.5616 13.4545 9.30472ZM12.512 2.00107V0.886389H11.5444C11.6136 1.56968 11.9283 1.9318 12.512 2.00107ZM17.6667 1.99005C18.2189 1.9255 18.5462 1.53662 18.5887 0.910004H17.6667V1.99005Z" fill="#2680EB"/>
<path d="M10.1047 29.2666V28.27C10.1047 25.2251 10.1047 22.1802 10.1047 19.1353C10.1047 18.6913 10.0623 18.6488 9.61539 18.6488C7.23476 18.6488 4.85412 18.6488 2.47349 18.6488C2.03764 18.6488 1.99672 18.6897 1.99672 19.1148C1.99672 20.1555 1.99672 21.1978 1.99672 22.2384C1.99672 22.4573 1.95897 22.6541 1.72452 22.7423C1.41927 22.8572 1.12503 22.6793 1.12189 22.3487C1.11244 21.171 1.10616 19.9918 1.12819 18.8141C1.1392 18.2583 1.56718 17.8474 2.11946 17.7829C2.23589 17.7687 2.35548 17.7656 2.47349 17.7656C4.85412 17.7656 7.23476 17.7656 9.61539 17.7656H10.0937C10.0969 17.679 10.1063 17.5766 10.1063 17.4743C10.1063 16.0605 10.1063 14.6451 10.1063 13.2313C10.1063 12.4268 10.561 11.9718 11.3666 11.9718C13.8165 11.9718 16.2648 11.9718 18.7147 11.9718C19.5156 11.9718 19.9703 12.4299 19.9718 13.2376C19.9718 16.1644 19.9718 19.0912 19.9718 22.018V22.3833C20.1009 22.3833 20.2047 22.3833 20.3101 22.3833C22.8277 22.3833 25.3468 22.3801 27.8643 22.3849C28.3977 22.3849 28.7973 22.662 28.95 23.1311C29.0082 23.3138 29.0224 23.5169 29.0224 23.7105C29.0271 25.4486 29.0255 27.1868 29.0255 28.9265V29.2933C29.2678 29.2933 29.4739 29.287 29.6801 29.2949C29.9601 29.3059 30.1395 29.4775 30.1442 29.7263C30.1489 29.9861 29.9648 30.1624 29.669 30.1766C29.5998 30.1797 29.5306 30.1766 29.4629 30.1766C19.8727 30.1766 10.281 30.1766 0.690761 30.1766C0.593207 30.1766 0.492507 30.1844 0.396526 30.1718C0.149494 30.1372 0.00158615 29.9908 1.26954e-05 29.7389C-0.00156076 29.487 0.143203 29.328 0.390236 29.3028C0.613666 29.2807 0.840241 29.2981 1.11559 29.2981C1.11559 29.1658 1.11559 29.0525 1.11559 28.9407C1.11559 27.5458 1.11559 23.6017 1.11559 22.2068C1.11559 22.0997 1.11559 21.9895 1.1329 21.884C1.17066 21.6683 1.32329 21.5692 1.52941 21.5597C1.74812 21.5503 1.91963 21.6384 1.96998 21.8651C1.99673 21.9879 1.99515 22.1186 1.99515 22.2461C1.99515 23.7292 1.99515 27.7599 1.99515 29.2681H10.1047V29.2666ZM19.0876 29.2792V28.9659C19.0876 23.7514 19.0876 18.5354 19.0876 13.321C19.0876 12.8912 19.0498 12.8534 18.614 12.8534C16.2333 12.8534 13.8527 12.8534 11.4721 12.8534C11.0189 12.8534 10.989 12.8833 10.989 13.3399C10.989 18.5449 10.989 23.7514 10.989 28.9564V29.2792H19.0876ZM28.1208 29.2807C28.1286 29.2083 28.1396 29.1595 28.1396 29.1123C28.1396 27.286 28.1428 25.4597 28.1396 23.6334C28.1396 23.3153 28.0751 23.2649 27.718 23.2649C25.309 23.2649 22.9 23.2649 20.4895 23.2649C20.0726 23.2649 20.0316 23.3043 20.0316 23.7184C20.0316 25.4754 20.0316 27.234 20.0316 28.991V29.2807H28.1208Z" fill="#2680EB"/>
<path d="M22.033 20.2012C22.1164 19.7131 22.1998 19.1794 22.3036 18.6504C22.3383 18.4756 22.3068 18.3591 22.1746 18.2363C21.808 17.8947 21.4571 17.5373 21.0937 17.1909C20.9379 17.0429 20.823 16.8571 20.9316 16.6714C21.0118 16.5328 21.1944 16.4021 21.3533 16.3706C21.8426 16.2699 22.3446 16.2289 22.837 16.1361C22.9661 16.1109 23.1218 16.0054 23.1848 15.892C23.4271 15.4543 23.619 14.9899 23.8677 14.5569C23.9526 14.4089 24.1524 14.2389 24.2988 14.2405C24.4467 14.2405 24.6449 14.4121 24.7315 14.5601C24.9769 14.9836 25.1862 15.4292 25.3876 15.8763C25.4726 16.0668 25.5953 16.1298 25.7904 16.1534C26.2687 16.2101 26.7487 16.2652 27.2175 16.3659C27.3843 16.4021 27.5779 16.5328 27.666 16.6777C27.7887 16.8792 27.6377 17.065 27.4819 17.2161C27.1341 17.5499 26.7959 17.8931 26.4403 18.2174C26.2986 18.3465 26.2577 18.474 26.2923 18.6567C26.3836 19.1384 26.4827 19.6202 26.5362 20.1067C26.5551 20.2767 26.4906 20.4956 26.3836 20.6278C26.2451 20.7994 26.0296 20.7349 25.8423 20.6357C25.4002 20.3995 24.9533 20.176 24.5159 19.9319C24.3586 19.8438 24.2358 19.8516 24.0816 19.9351C23.6253 20.1854 23.1675 20.431 22.7002 20.6609C22.3446 20.8356 22.0267 20.6278 22.0346 20.2027L22.033 20.2012ZM23.0605 19.4769C23.4019 19.2975 23.6851 19.1636 23.9542 19.0046C24.1934 18.8645 24.4105 18.8692 24.6465 19.0046C24.9219 19.1621 25.2082 19.3006 25.5355 19.4722C25.4804 19.1306 25.46 18.844 25.3829 18.5748C25.2838 18.2221 25.3892 17.9718 25.6582 17.7451C25.877 17.5609 26.0705 17.3483 26.3112 17.1138C25.9226 17.0587 25.6126 17.0067 25.2995 16.9736C25.0415 16.9453 24.8636 16.8304 24.7551 16.5895C24.6182 16.2888 24.464 15.9959 24.2988 15.6606C24.132 15.9959 23.9746 16.2888 23.8393 16.5911C23.7308 16.8351 23.5514 16.9453 23.2949 16.9752C22.9786 17.0114 22.6655 17.0665 22.3068 17.1201C22.5774 17.3909 22.8087 17.627 23.0479 17.8569C23.2178 18.0206 23.2855 18.1985 23.2336 18.4394C23.1643 18.7637 23.1234 19.0944 23.0605 19.4801V19.4769Z" fill="#2680EB"/>
<path d="M3.41924 15.7755C3.50106 15.2859 3.57972 14.7521 3.68672 14.2232C3.72605 14.0295 3.66627 13.9161 3.5341 13.7918C3.18164 13.4627 2.82762 13.1352 2.50506 12.7794C2.38863 12.6519 2.30208 12.4409 2.30994 12.2725C2.32096 12.0347 2.54754 11.9639 2.76467 11.9324C3.25087 11.8647 3.73707 11.7891 4.22484 11.7277C4.39792 11.7057 4.50335 11.6427 4.58045 11.4774C4.78972 11.0224 5.00213 10.569 5.2523 10.136C5.33727 9.988 5.53867 9.81954 5.685 9.82112C5.83291 9.82112 6.03116 9.99273 6.11613 10.1407C6.36159 10.5642 6.57086 11.0098 6.77227 11.4569C6.85723 11.6443 6.97996 11.7104 7.17507 11.7324C7.63452 11.7844 8.09081 11.8568 8.54712 11.9229C8.76583 11.9544 8.97824 12.0001 9.06006 12.2488C9.14188 12.4976 9.00184 12.6582 8.84135 12.8141C8.49519 13.1494 8.15376 13.4895 7.80445 13.8201C7.68801 13.9303 7.63924 14.0295 7.67385 14.2027C7.77613 14.7018 7.84693 15.2071 7.93347 15.711C7.96966 15.9204 7.95392 16.1408 7.74937 16.2211C7.59832 16.2793 7.37961 16.2714 7.23014 16.2037C6.80058 16.0117 6.3852 15.785 5.9761 15.5519C5.77627 15.437 5.61892 15.4228 5.40965 15.5441C4.97695 15.796 4.53009 16.0227 4.08008 16.2415C3.72763 16.4131 3.40665 16.2006 3.41924 15.7771V15.7755ZM5.68186 11.2397C5.50564 11.5907 5.353 11.8741 5.22241 12.167C5.11384 12.411 4.93604 12.5228 4.67956 12.5527C4.3633 12.5889 4.04861 12.6424 3.69773 12.6944C3.94319 12.9447 4.14774 13.1793 4.38061 13.384C4.60719 13.5839 4.66541 13.8107 4.60719 14.094C4.54425 14.3979 4.49862 14.7065 4.43726 15.0576C4.77398 14.8812 5.07293 14.7348 5.36087 14.5711C5.57958 14.4467 5.78256 14.4499 5.99969 14.5695C6.29078 14.7301 6.5866 14.8797 6.9186 15.0544C6.8651 14.7348 6.83835 14.453 6.76912 14.1806C6.67943 13.828 6.75495 13.5572 7.04447 13.3226C7.26475 13.1447 7.45357 12.929 7.69116 12.6928C7.30251 12.6377 6.99255 12.5873 6.681 12.5527C6.42453 12.5244 6.24515 12.4142 6.13816 12.1686C6.00914 11.8757 5.85494 11.5923 5.67871 11.2397H5.68186Z" fill="#2680EB"/>
</svg>
