<svg width="30" height="31" viewBox="0 0 30 31" fill="none" xmlns="http://www.w3.org/2000/svg">
<path d="M10.7171 23.9061C10.6052 23.9061 10.4867 23.9061 10.3682 23.9061C7.73142 23.9061 5.0946 23.9093 2.45615 23.9061C1.23104 23.9044 0.335334 23.2452 0.0724627 22.1444C0.0172923 21.9106 0.00431217 21.6622 0.00268951 21.4203C-0.000555814 15.1076 -0.000557399 8.79323 0.00106526 2.48051C0.00106526 1.19946 0.700436 0.280482 1.85577 0.0450542C2.06185 0.00283959 2.27928 0.00121773 2.49185 0.00121773C10.8388 -0.00040591 19.1874 -0.00040591 27.5344 0.00121773C28.7984 0.00121773 29.7006 0.671784 29.9473 1.80021C29.9927 2.00642 29.9976 2.22398 29.9976 2.43505C30.0008 8.77861 30.0008 15.1222 29.9976 21.4657C29.9976 22.9514 29.0483 23.9012 27.5636 23.9044C24.9268 23.9093 22.2899 23.9044 19.6515 23.9061H19.2653C19.2864 23.9937 19.2929 24.0506 19.314 24.1025C19.6353 24.9014 19.9647 25.6969 20.2778 26.499C20.3444 26.6679 20.4287 26.7296 20.6105 26.7263C21.107 26.7166 21.6052 26.7068 22.1017 26.7328C22.965 26.7783 23.6238 27.4294 23.7016 28.2818C23.7763 29.0985 23.2197 29.86 22.397 30.0613C22.2899 30.0873 22.1763 30.1019 22.066 30.1019C17.3603 30.1035 12.6529 30.1116 7.94723 30.0986C6.83733 30.0954 6.07306 29.0286 6.36352 27.9619C6.54688 27.2897 7.13428 26.7815 7.83203 26.7393C8.35777 26.7085 8.88675 26.7328 9.41249 26.7133C9.50985 26.7101 9.6559 26.637 9.68835 26.5591C10.0453 25.7099 10.3845 24.8526 10.7269 23.997C10.7333 23.9824 10.722 23.9596 10.7122 23.9061H10.7171ZM15.0188 23.0861C19.1777 23.0861 23.3349 23.0861 27.4938 23.0861C28.6086 23.0861 29.1862 22.5097 29.1862 21.404C29.1862 15.1108 29.1862 8.81921 29.1862 2.52598C29.1862 1.39593 28.6118 0.816283 27.4857 0.816283C19.1696 0.816283 10.8518 0.816283 2.53566 0.816283C1.40305 0.816283 0.828623 1.38943 0.828623 2.51623C0.828623 8.7981 0.828623 15.0816 0.828623 21.3634C0.828623 22.5179 1.39331 23.0845 2.54378 23.0845C6.70265 23.0845 10.8599 23.0845 15.0188 23.0845V23.0861ZM15.0399 27.5446C13.4075 27.5446 11.7735 27.5446 10.1411 27.5446C9.43035 27.5446 8.72124 27.5365 8.01052 27.5479C7.51561 27.556 7.15538 27.9181 7.1424 28.3857C7.12941 28.863 7.45719 29.2284 7.9521 29.2836C8.03161 29.2917 8.11437 29.2901 8.1955 29.2901C12.7292 29.2901 17.2629 29.2901 21.7966 29.2901C21.9378 29.2901 22.0822 29.2819 22.2185 29.2511C22.556 29.1764 22.7735 28.9572 22.8546 28.626C22.9357 28.2948 22.8692 27.9684 22.582 27.7817C22.3759 27.6469 22.1001 27.556 21.8551 27.5544C19.5833 27.5381 17.3116 27.5446 15.0399 27.5446ZM19.4811 26.7068C19.1095 25.7911 18.7623 24.9176 18.3955 24.0522C18.3631 23.9775 18.2089 23.9126 18.11 23.9126C16.0411 23.9044 13.9738 23.9093 11.9049 23.9028C11.7248 23.9028 11.6388 23.9596 11.5723 24.1285C11.285 24.864 10.9816 25.5947 10.6863 26.3269C10.6392 26.4438 10.597 26.564 10.5435 26.7085H19.4795L19.4811 26.7068Z" fill="#2680EB"/>
<path d="M15.0105 1.88303C19.1678 1.88303 23.3267 1.88303 27.4839 1.88303C28.0389 1.88303 28.133 1.97883 28.133 2.54061C28.133 7.86939 28.133 13.1966 28.133 18.5253C28.133 19.0969 28.0324 19.1992 27.4612 19.1992C19.1548 19.1992 10.85 19.1992 2.54362 19.1992C1.97893 19.1992 1.87671 19.0952 1.87671 18.5205C1.87671 13.2031 1.87671 7.88401 1.87671 2.56659C1.87671 1.97233 1.96595 1.88466 2.56472 1.88466C6.71224 1.88466 10.8598 1.88466 15.0089 1.88466L15.0105 1.88303ZM27.2892 18.3532V2.71596H2.73185V18.3532H27.2892Z" fill="#2680EB"/>
<path d="M15.0074 21.331C14.751 21.331 14.5401 21.1248 14.5352 20.8731C14.5304 20.6101 14.7543 20.3958 15.0253 20.4039C15.2817 20.412 15.4877 20.6247 15.4812 20.8764C15.4748 21.1296 15.2638 21.3326 15.0074 21.3326V21.331Z" fill="#2680EB"/>
<path d="M3.77519 8.60163C3.78817 5.92263 5.95118 3.76643 8.6237 3.77293C11.2978 3.7778 13.4592 5.94698 13.4511 8.61949C13.443 11.292 11.2703 13.4612 8.60585 13.4563C5.94306 13.4514 3.76383 11.2612 3.77519 8.60163ZM6.09884 11.6947C7.08542 12.6412 8.86061 12.888 10.2074 12.2938C11.551 11.7012 12.6041 10.2545 12.5684 9.04326C12.5311 9.03677 12.4921 9.0254 12.4532 9.0254C11.2865 9.0254 10.1214 9.01891 8.95472 9.0319C8.84276 9.0319 8.70808 9.11145 8.6237 9.19426C8.09309 9.71058 7.57384 10.2399 7.04972 10.7611C6.73492 11.0744 6.41688 11.3846 6.09884 11.6963V11.6947ZM5.5017 11.1491C6.39579 10.2529 7.24931 9.40046 8.09309 8.53993C8.16449 8.46687 8.19369 8.32399 8.19532 8.21358C8.20181 7.10789 8.20019 6.00218 8.19856 4.89649C8.19856 4.81043 8.18558 4.726 8.17584 4.61235C6.60186 4.87051 5.47898 5.67746 4.89645 7.13386C4.3269 8.55454 4.57354 9.88593 5.5017 11.1491ZM9.04884 8.17786H12.5635C12.5376 6.48441 10.8354 4.69678 9.04884 4.65944V8.17786Z" fill="#2680EB"/>
<path d="M23.0525 8.93449C23.7357 8.24931 24.3653 7.61934 25.0452 6.93741C24.8959 6.93741 24.7839 6.94553 24.6736 6.93741C24.3896 6.91468 24.2095 6.74095 24.2322 6.49903C24.2565 6.23438 24.4188 6.10449 24.6817 6.10286C25.1068 6.10124 25.5336 6.09637 25.9587 6.10286C26.2703 6.10774 26.4228 6.25548 26.4309 6.57534C26.4423 6.98125 26.439 7.38716 26.4325 7.79307C26.4277 8.1178 26.2832 8.29153 26.0285 8.29965C25.7591 8.30777 25.6131 8.13566 25.5985 7.79307C25.5969 7.75248 25.5936 7.71189 25.5887 7.62583C25.5027 7.70052 25.4362 7.75086 25.3778 7.80931C24.7466 8.43928 24.1154 9.0725 23.4842 9.70247C23.1791 10.0061 22.9974 10.0061 22.6891 9.6976C21.4834 8.49286 20.281 7.28812 19.0527 6.0574C18.9667 6.13696 18.8872 6.20515 18.8125 6.28146C17.615 7.47971 16.4175 8.67795 15.2199 9.87458C15.1485 9.94602 15.0755 10.0613 14.9944 10.0678C14.8289 10.0824 14.6001 10.097 14.5076 10.0028C14.4151 9.90867 14.4362 9.67974 14.4492 9.51413C14.4541 9.44269 14.5595 9.37612 14.6244 9.3128C15.9583 7.97817 17.2905 6.64353 18.6259 5.3089C18.9732 4.96144 19.1306 4.96307 19.4875 5.31864C20.6072 6.43733 21.7252 7.55602 22.8432 8.67795C22.9211 8.75589 22.9844 8.84844 23.0574 8.93611L23.0525 8.93449Z" fill="#2680EB"/>
<path d="M18.5222 13.2875C18.5222 12.1509 18.5222 11.0144 18.5222 9.87783C18.5222 9.43945 18.6439 9.32255 19.0853 9.32255C19.7554 9.32092 20.424 9.3193 21.0941 9.32255C21.469 9.32417 21.6118 9.45893 21.6134 9.83724C21.6166 12.1509 21.6166 14.4662 21.6134 16.7799C21.6134 17.1728 21.469 17.306 21.0747 17.3076C20.3948 17.3109 19.7149 17.3109 19.0366 17.3076C18.665 17.306 18.5255 17.168 18.5238 16.7913C18.5206 15.6239 18.5238 14.4565 18.5238 13.2891L18.5222 13.2875ZM19.3579 10.162V16.4503H20.7712V10.162H19.3579Z" fill="#2680EB"/>
<path d="M17.4544 14.7309C17.4544 15.4112 17.456 16.0915 17.4544 16.7718C17.4527 17.1631 17.3132 17.3044 16.9254 17.306C16.2455 17.3092 15.5656 17.3092 14.8873 17.306C14.5141 17.3044 14.3632 17.1631 14.3616 16.7929C14.3567 15.4128 14.3567 14.0327 14.3616 12.651C14.3616 12.2987 14.5157 12.1477 14.8662 12.1444C15.5656 12.1379 16.2666 12.1363 16.9659 12.1444C17.3132 12.1477 17.4527 12.3003 17.4544 12.6607C17.4576 13.3508 17.4544 14.0408 17.4544 14.7309ZM15.2005 16.4471H16.6122V13.0017H15.2005V16.4471Z" fill="#2680EB"/>
<path d="M22.6745 15.429C22.6745 14.9923 22.6729 14.5571 22.6745 14.1204C22.6762 13.7177 22.8044 13.5846 23.1938 13.583C23.8834 13.5797 24.5731 13.5797 25.2627 13.583C25.6197 13.5846 25.769 13.7258 25.7722 14.0749C25.7771 14.9874 25.7771 15.9015 25.7722 16.814C25.7706 17.1598 25.6132 17.3076 25.2627 17.3092C24.5633 17.3125 23.864 17.3125 23.1646 17.3092C22.8287 17.3076 22.681 17.1615 22.6778 16.8286C22.6729 16.3626 22.6778 15.895 22.6778 15.429H22.6745ZM24.9203 14.4078H23.5281V16.4454H24.9203V14.4078Z" fill="#2680EB"/>
<path d="M7.95038 16.0168C6.77558 16.0168 5.59915 16.0168 4.42434 16.0168C4.33347 16.0168 4.24098 16.02 4.15174 16.0103C3.91158 15.9843 3.78501 15.8333 3.78664 15.6027C3.78988 15.3722 3.92132 15.226 4.15985 15.2017C4.25072 15.1919 4.34159 15.1952 4.43246 15.1952C6.77396 15.1952 9.11545 15.1952 11.4553 15.1952C11.5559 15.1952 11.6598 15.1919 11.7588 15.2049C11.9827 15.2342 12.1044 15.3787 12.1076 15.5962C12.1109 15.8284 11.9876 15.9778 11.749 16.0103C11.6598 16.0216 11.5673 16.0184 11.4764 16.0184C10.3016 16.0184 9.12519 16.0184 7.95038 16.0184V16.0168Z" fill="#2680EB"/>
</svg>
