<svg width="31" height="30" viewBox="0 0 31 30" fill="none" xmlns="http://www.w3.org/2000/svg">
<path d="M16.6906 4.80582C18.2782 4.75799 19.8499 4.74403 21.4474 4.81778C21.4474 4.26169 21.4474 3.67969 21.4474 3.09768C21.4514 1.93966 22.2004 1.19821 23.3657 1.19621C24.4832 1.19621 25.6006 1.19422 26.7181 1.19621C27.8496 1.2002 28.6005 1.95361 28.6005 3.0937C28.6025 8.03873 28.6005 12.9838 28.6005 17.9288C28.6005 18.1102 28.5866 18.2716 28.7579 18.4271C30.6204 20.1332 31.4032 22.2519 30.7996 24.7115C30.1702 27.2787 28.4651 28.9091 25.9094 29.6187C25.3696 29.7681 24.8158 29.8299 24.2541 29.8299C17.9953 29.8299 11.7366 29.8299 5.47988 29.8299C2.32662 29.8299 -0.159347 27.2767 0.00797738 24.1295C0.123511 21.937 1.24498 20.3525 3.23694 19.4177C3.49589 19.2961 3.5696 19.1785 3.5696 18.9054C3.56163 13.2767 3.56362 7.64807 3.56362 2.01939C3.56362 0.705898 4.27077 0.00430274 5.59143 0.00430274C6.64717 0.00430274 7.70291 0.0142707 8.75864 0.000318607C9.26659 -0.00765403 9.70881 0.133859 10.1052 0.440805C10.5076 0.189667 10.9179 -0.00765403 11.4159 0.000318607C12.5454 0.0162639 13.6768 0.00231152 14.8062 0.00629784C15.9177 0.0102842 16.6747 0.765692 16.6807 1.87588C16.6846 2.84456 16.6826 3.81323 16.6846 4.7839C16.6846 4.80583 16.7026 4.82974 16.6946 4.80981L16.6906 4.80582ZM14.9158 28.636C18.0571 28.636 21.1984 28.662 24.3397 28.6301C27.9173 28.5922 30.1762 25.3274 29.7419 22.5469C29.3296 19.896 26.8396 17.7653 24.1585 17.9348C23.1804 17.9965 22.9354 17.8271 22.4812 16.9362C21.0769 14.1816 18.82 12.6369 15.7325 12.5512C12.5493 12.4635 10.1749 13.9385 8.63514 16.7289C8.23078 17.4604 7.99772 18.2557 7.87222 19.0848C7.74474 19.9279 7.17504 20.3146 6.32846 20.1631C6.13324 20.1272 5.93405 20.1133 5.73685 20.1013C3.31263 19.9459 1.13742 22.0168 1.18124 24.4364C1.22307 26.7326 3.13137 28.6201 5.45598 28.6301C8.60925 28.642 11.7625 28.634 14.9158 28.634V28.636ZM4.75481 10.2491C4.75481 13.0455 4.75879 15.8419 4.74884 18.6364C4.74884 18.9034 4.81457 18.9752 5.07751 18.9393C5.50976 18.8815 5.94799 18.8915 6.37626 18.9732C6.61729 19.019 6.67904 18.9812 6.71888 18.73C7.03162 16.7648 7.90808 15.0905 9.37217 13.7372C9.5116 13.6076 9.52555 13.4741 9.52555 13.3106C9.52555 9.51965 9.52555 5.73065 9.52356 1.93966C9.52356 1.4035 9.3144 1.19621 8.78255 1.19422C7.71486 1.19223 6.64717 1.19422 5.57749 1.19422C4.94006 1.19422 4.75481 1.3756 4.75481 2.00942C4.75481 4.75599 4.75481 7.50257 4.75481 10.2491ZM27.3914 17.4823C27.4034 17.4006 27.4093 17.3767 27.4093 17.3528C27.4093 12.5951 27.4093 7.83941 27.4093 3.08174C27.4093 2.60338 27.1842 2.39011 26.6902 2.39011C25.6106 2.38613 24.531 2.39011 23.4513 2.39011C22.8219 2.39011 22.6426 2.57548 22.6426 3.21529C22.6426 6.72922 22.6545 10.2452 22.6306 13.7591C22.6266 14.4726 22.6685 15.1324 23.1665 15.6905C23.2382 15.7722 23.2959 15.8778 23.3278 15.9815C23.5111 16.5655 23.8457 16.7987 24.5071 16.7668C25.505 16.7169 26.4572 17.0358 27.3894 17.4823H27.3914ZM10.7167 12.6768C10.7865 12.6469 10.8203 12.6389 10.8502 12.621C12.2127 11.8178 13.6808 11.3793 15.2624 11.3474C15.4915 11.3434 15.4875 11.2378 15.4875 11.0763C15.4855 8.0188 15.4875 4.96328 15.4855 1.90578C15.4855 1.41945 15.2664 1.1982 14.7823 1.1982C13.6648 1.19422 12.5473 1.19422 11.4299 1.1982C10.9398 1.1982 10.7187 1.41546 10.7187 1.8978C10.7167 5.47552 10.7187 9.05524 10.7187 12.6788L10.7167 12.6768ZM21.4474 13.5777C21.4474 11.2098 21.4494 8.92568 21.4474 6.63953C21.4474 6.19904 21.2183 5.97182 20.7821 5.96983C19.6407 5.96385 18.4973 5.96385 17.3559 5.96983C16.9137 5.97182 16.6826 6.19505 16.6826 6.62956C16.6767 8.14436 16.6826 9.66116 16.6747 11.176C16.6747 11.3673 16.7364 11.4351 16.9137 11.457C17.3579 11.5128 17.7882 11.6224 18.2165 11.756C19.3997 12.1247 20.4554 12.7266 21.4494 13.5757L21.4474 13.5777Z" fill="#2680EB"/>
<path d="M7.11531 4.17599C6.83046 4.17599 6.54561 4.18396 6.26076 4.174C5.89026 4.16004 5.64127 3.90292 5.64923 3.56608C5.6572 3.24119 5.89624 2.99404 6.2508 2.98806C6.84441 2.97611 7.44 2.97611 8.03361 2.98806C8.38419 2.99604 8.62323 3.25116 8.62721 3.57605C8.6292 3.90093 8.39216 4.14609 8.04357 4.17599C8.01966 4.17798 7.99377 4.17599 7.96986 4.17599C7.68501 4.17599 7.40016 4.17599 7.11531 4.17599Z" fill="#2680EB"/>
<path d="M25.023 5.36989C24.7382 5.36989 24.4533 5.37786 24.1685 5.36989C23.788 5.35793 23.539 5.12074 23.535 4.7839C23.529 4.44506 23.778 4.18794 24.1505 4.18196C24.7322 4.172 25.3138 4.172 25.8955 4.18196C26.268 4.18994 26.517 4.44706 26.511 4.7839C26.505 5.12074 26.256 5.35793 25.8756 5.36989C25.5907 5.37786 25.3059 5.36989 25.021 5.36989H25.023Z" fill="#2680EB"/>
<path d="M13.135 2.98408C13.4079 2.98408 13.6808 2.9781 13.9517 2.98408C14.3322 2.99604 14.5812 3.22924 14.5872 3.56808C14.5931 3.90492 14.3441 4.16602 13.9716 4.172C13.39 4.18396 12.8083 4.18396 12.2267 4.172C11.8542 4.16403 11.6052 3.90891 11.6092 3.57007C11.6132 3.23123 11.8622 2.99405 12.2426 2.98408C12.5394 2.97611 12.8362 2.98408 13.133 2.98408H13.135Z" fill="#2680EB"/>
<path d="M19.0292 8.94961C18.7443 8.94961 18.4595 8.95958 18.1746 8.94762C17.8201 8.93167 17.581 8.69249 17.5731 8.36761C17.5651 8.02877 17.8121 7.76767 18.1846 7.76169C18.7662 7.74973 19.3479 7.75173 19.9295 7.76169C20.304 7.76767 20.553 8.0208 20.551 8.35964C20.549 8.69648 20.2981 8.93766 19.9216 8.94961C19.6248 8.95958 19.328 8.94961 19.0312 8.94961H19.0292Z" fill="#2680EB"/>
</svg>
