<svg width="30" height="30" viewBox="0 0 30 30" fill="none" xmlns="http://www.w3.org/2000/svg">
<path d="M16.2796 18.9111H9.60391C9.60391 19.4991 9.61588 25.5664 9.6005 26.1494C9.58682 26.664 9.06726 26.9649 8.68784 26.6674C8.54257 26.5546 8.41952 26.3169 8.41781 26.134C8.39901 23.7833 8.40584 15.9501 8.40584 13.5994C8.40584 13.2917 8.59042 13.1344 8.84679 13.0147C10.5337 12.2334 12.2171 11.447 13.9023 10.6606C14.0373 10.5974 14.174 10.5341 14.3056 10.464C14.6714 10.2726 14.7705 10.0144 14.6115 9.67079C14.4543 9.33059 14.1757 9.22459 13.81 9.39384C12.0325 10.2144 10.2602 11.0504 8.47592 11.8591C8.24348 11.965 7.94439 12.0112 7.69486 11.9719C5.91228 11.7001 4.16217 11.7787 2.44454 12.3582C1.71989 12.6027 1.22083 13.2147 1.2157 13.9755C1.20203 16.0509 1.20716 18.1264 1.21229 20.2018C1.21229 20.6018 1.43105 20.8001 1.82243 20.7933C2.20698 20.7865 2.40694 20.5864 2.40694 20.1744C2.41036 18.4375 2.40865 16.6989 2.40865 14.9619C2.40865 14.8491 2.39669 14.7346 2.4189 14.6251C2.48043 14.302 2.68552 14.1071 3.01367 14.1106C3.34181 14.114 3.54519 14.3106 3.59988 14.6354C3.62039 14.7568 3.60843 14.885 3.60843 15.0098C3.60843 19.2598 3.60843 23.5098 3.60843 27.7615C3.60843 28.4932 4.08868 28.8813 4.77745 28.7121C5.20472 28.6078 5.40639 28.3154 5.40639 27.7786C5.40639 25.3664 5.40639 22.9525 5.40639 20.5403C5.40639 20.4274 5.39955 20.3146 5.41152 20.2035C5.44741 19.8735 5.69523 19.6462 6.0097 19.6479C6.32246 19.6496 6.56686 19.8787 6.60104 20.2103C6.61301 20.3215 6.60617 20.4343 6.60617 20.5471C6.60617 22.9593 6.60617 25.3733 6.60617 27.7855C6.60617 28.4488 6.97021 28.7856 7.61453 28.7309C8.09992 28.6898 8.39388 28.3941 8.40072 27.9017C8.41268 27.1512 8.40243 26.4024 8.40584 25.6519C8.40755 25.1767 8.62632 24.9031 9.00061 24.8997C9.3749 24.8963 9.60221 25.1715 9.60391 25.6417C9.60733 26.3665 9.60221 27.0914 9.60391 27.8162C9.60904 28.6317 9.30824 29.2899 8.56992 29.6745C7.80424 30.0746 7.03174 30.0404 6.28657 29.5891C6.19257 29.5309 6.10541 29.4609 6.00286 29.389C5.52261 29.7788 4.98596 29.9669 4.37068 29.9361C3.23072 29.878 2.40865 29.0386 2.40523 27.8949C2.4001 26.0571 2.40523 24.2193 2.40523 22.3815C2.40523 22.2447 2.40523 22.1097 2.40523 21.9746C2.08563 21.9746 1.78996 22.002 1.49941 21.9695C0.667087 21.8755 0.021051 21.1916 0.0142147 20.3522C-0.00116715 18.2016 -0.0080035 16.0509 0.0142147 13.902C0.0278874 12.6506 0.943959 11.5188 2.15912 11.1684C2.60007 11.0419 3.04785 10.9325 3.5469 10.8008C2.62399 9.76995 2.23432 8.6006 2.6633 7.27397C3.08887 5.95588 4.0357 5.16606 5.40468 4.83098C5.40468 4.24802 5.40468 3.66334 5.40468 3.07696C5.4081 1.96231 6.17548 1.193 7.28981 1.19129C10.414 1.19129 13.5365 1.19129 16.6607 1.19129H17.0863C17.1393 0.686969 16.9445 0.0475873 17.7238 0.00142875C18.1306 -0.0225053 18.257 0.249317 18.3203 1.19129H18.7493C21.8359 1.19129 24.9225 1.19129 28.0074 1.19129C29.255 1.19129 29.9951 1.9247 29.9951 3.16244C29.9951 5.31308 29.9951 12.2681 29.9951 14.4187C29.9951 14.5435 30.0036 14.6701 29.9831 14.7931C29.9335 15.0957 29.6686 15.3146 29.3747 15.2941C29.0619 15.2718 28.8688 15.094 28.809 14.7897C28.785 14.6683 28.797 14.5401 28.797 14.4153C28.797 12.2903 28.797 5.35924 28.797 3.23424C28.797 2.57263 28.6158 2.39313 27.951 2.39313C21.1163 2.39313 14.2817 2.39313 7.44704 2.39313C6.78563 2.39313 6.60617 2.57434 6.60617 3.23937C6.60617 3.7625 6.60617 4.28734 6.60617 4.83098C7.83501 5.12503 8.73912 5.81399 9.23304 6.97308C9.72868 8.13559 9.55606 9.2434 8.84508 10.3478C8.99719 10.288 9.09632 10.2555 9.19032 10.211C10.5354 9.5836 11.8838 8.96132 13.2238 8.32194C14.2167 7.84838 15.22 8.17149 15.6866 9.13912C16.16 10.1238 15.7771 11.1325 14.7654 11.5975C13.1332 12.348 11.5044 13.107 9.87908 13.8712C9.76628 13.9242 9.6193 14.0627 9.61759 14.1653C9.59879 15.3261 9.60562 16.4869 9.60562 17.6955H10.0261C15.9993 17.6955 21.9709 17.6955 27.9442 17.6955C28.6261 17.6955 28.7987 17.5178 28.7987 16.8254C28.7987 16.1757 28.7987 15.5261 28.7987 14.8747C28.7987 14.3738 29.0226 14.0918 29.4071 14.0986C29.7883 14.1037 29.9968 14.3824 29.9985 14.8918C29.9985 15.6167 30.0019 16.3416 29.9985 17.0664C29.9916 18.1041 29.2072 18.8922 28.168 18.894C24.7687 18.8974 21.371 18.894 17.9716 18.894H17.4982C17.4914 19.0376 17.4811 19.1572 17.4811 19.2786C17.4811 20.8155 17.4862 22.3541 17.4743 23.8911C17.4726 24.1441 17.5614 24.3031 17.7443 24.4603C19.397 25.8913 21.0446 27.3307 22.6921 28.7685C22.8049 28.8659 22.9246 28.9668 23.0032 29.0899C23.1638 29.3429 23.1262 29.5976 22.9194 29.8096C22.7263 30.0062 22.487 30.0609 22.2358 29.9241C22.1281 29.866 22.0324 29.7805 21.9384 29.7002C20.5626 28.5018 19.1868 27.3034 17.8127 26.105C17.7289 26.0314 17.6401 25.9613 17.4828 25.8297C17.4828 26.2725 17.4828 26.6503 17.4828 27.0281C17.4828 27.1649 17.4828 27.3034 17.4828 27.4401C17.4794 27.9205 17.2692 28.1889 16.8932 28.1958C16.5035 28.2026 16.2847 27.9274 16.283 27.4213C16.2813 26.9221 16.283 26.4246 16.283 25.8434C16.1258 25.9716 16.0147 26.0588 15.9087 26.1494C14.5329 27.3478 13.1571 28.5445 11.783 29.7446C11.5642 29.9361 11.3386 30.0729 11.0378 29.9395C10.602 29.7464 10.5405 29.2489 10.9302 28.9018C11.6668 28.2453 12.4154 27.6008 13.1588 26.9529C14.1279 26.1067 15.1003 25.2638 16.0643 24.4108C16.1634 24.3219 16.2711 24.1731 16.2711 24.0518C16.2847 22.3524 16.2796 20.6531 16.2796 18.9111ZM5.98065 10.582C7.25563 10.594 8.31355 9.56309 8.31697 8.30313C8.32039 7.06882 7.26588 6.00204 6.03021 5.99178C4.77232 5.98153 3.70072 7.03634 3.69388 8.28946C3.68705 9.5289 4.72617 10.5683 5.98065 10.582Z" fill="#2680EB"/>
<path d="M17.7102 4.79159C19.5218 4.79159 21.3335 4.79159 23.1451 4.79159C23.2579 4.79159 23.3724 4.77962 23.4818 4.80185C23.8031 4.8651 23.9945 5.06683 23.9928 5.39849C23.9911 5.71305 23.8048 5.90794 23.5023 5.97632C23.3946 6.00026 23.2784 5.99 23.1656 5.99C19.5167 5.99 15.8695 5.99 12.2206 5.99C12.1215 5.99 12.0172 6.00026 11.9215 5.97974C11.6002 5.91307 11.4071 5.71476 11.4122 5.38139C11.4173 5.04973 11.6156 4.85484 11.9386 4.79843C12.048 4.77962 12.1625 4.78988 12.2753 4.78988C14.0869 4.78988 15.8986 4.78988 17.7102 4.78988V4.79159Z" fill="#2680EB"/>
<path d="M21.113 13.1942C19.6535 13.1942 18.1939 13.1942 16.7344 13.1942C16.6216 13.1942 16.5053 13.2044 16.3994 13.1805C16.0986 13.1104 15.9123 12.9189 15.9106 12.6044C15.9071 12.271 16.0969 12.071 16.4182 12.006C16.5378 11.9821 16.666 11.994 16.7907 11.994C19.6979 11.994 22.6051 11.994 25.5122 11.994C25.5755 11.994 25.637 11.994 25.7002 11.994C26.1343 12.0043 26.4061 12.2402 26.3993 12.6026C26.3924 12.9634 26.1241 13.1856 25.6814 13.1924C25.5191 13.1959 25.3567 13.1924 25.1943 13.1924C23.8339 13.1924 22.4752 13.1924 21.1147 13.1924L21.113 13.1942Z" fill="#2680EB"/>
<path d="M21.4532 7.19184C22.8016 7.19184 24.1484 7.19184 25.4969 7.19184C25.596 7.19184 25.6968 7.18671 25.796 7.19355C26.1532 7.21919 26.3941 7.46024 26.3976 7.78677C26.401 8.1133 26.16 8.36632 25.8062 8.38684C25.5447 8.40222 25.2815 8.39196 25.02 8.39196C22.4735 8.39196 19.9286 8.39196 17.3821 8.39196C17.283 8.39196 17.1821 8.39538 17.083 8.39196C16.6745 8.37658 16.4216 8.13724 16.4301 7.77823C16.4387 7.43631 16.6848 7.20552 17.0745 7.19526C17.3855 7.18671 17.6983 7.19355 18.011 7.19355C19.1596 7.19355 20.3081 7.19355 21.4549 7.19355L21.4532 7.19184Z" fill="#2680EB"/>
<path d="M21.7471 9.59208C23.046 9.59208 24.3432 9.59208 25.6421 9.59208C26.1173 9.59208 26.3907 9.81091 26.3976 10.1819C26.4027 10.5546 26.1258 10.7905 25.6609 10.7905C23.0529 10.7922 20.4431 10.7922 17.835 10.7905C17.3633 10.7905 17.0967 10.5631 17.1035 10.1819C17.1086 9.80407 17.3736 9.59379 17.8555 9.59208C19.1544 9.59037 20.4516 9.59208 21.7505 9.59208H21.7471Z" fill="#2680EB"/>
</svg>
