<svg width="35" height="30" viewBox="0 0 35 30" fill="none" xmlns="http://www.w3.org/2000/svg">
<path d="M34.5275 24.0619C34.5275 24.0619 34.5095 24.0782 34.5077 24.089C33.9744 25.8845 33.0809 26.546 31.191 26.546C29.5624 26.546 27.9319 26.546 26.3033 26.546H25.8961C25.8961 26.9516 25.8961 27.3302 25.8961 27.7088C25.8961 28.2045 25.8889 28.7002 25.8979 29.196C25.9033 29.5168 25.8727 29.8107 25.5304 29.9531C25.1953 30.0919 24.9809 29.899 24.7665 29.6827C24.2008 29.104 23.6279 28.5326 22.9613 27.8584C22.7938 28.0729 22.6587 28.2802 22.4893 28.4551C22.0533 28.9093 21.6029 29.351 21.1561 29.7945C20.976 29.9747 20.767 30.0576 20.513 29.9549C20.2499 29.8485 20.1454 29.6448 20.1454 29.369C20.1473 28.4461 20.1454 27.5249 20.1454 26.5641C19.9815 26.5568 19.8428 26.5442 19.7023 26.5442C14.1624 26.5442 8.62428 26.5442 3.08439 26.5442C1.60168 26.5442 0.475694 25.7456 0.117178 24.4261C0.0415112 24.1485 0.00728186 23.8492 0.00548027 23.5608C7.55048e-05 16.6998 -0.0017296 9.84062 0.00187358 2.97963C0.00187358 1.26348 1.24497 0.00341317 2.95288 0.00341317C12.4923 -0.00199486 22.0317 -0.000192182 31.5711 0.00341317C33.0232 0.00341317 34.1294 0.897541 34.4609 2.30723C34.4753 2.37213 34.5023 2.43342 34.5239 2.49652V24.0619H34.5275ZM20.1491 25.3923V24.9398C20.1491 22.7766 20.1725 20.6134 20.14 18.452C20.122 17.3398 20.3292 16.2113 19.9112 15.1171C19.8158 14.8647 19.7491 14.7115 19.4662 14.6718C18.5618 14.5456 18.0178 13.7416 18.2448 12.8511C18.315 12.5717 18.2538 12.4239 18.0052 12.276C17.2143 11.8073 17.0323 10.8663 17.5836 10.1218C17.7421 9.90913 17.7637 9.75049 17.598 9.52515C17.0197 8.74099 17.2017 7.84686 18.0412 7.3313C18.2646 7.19429 18.3096 7.04467 18.2484 6.79951C18.0178 5.86572 18.5456 5.08516 19.5059 4.94455C19.7491 4.9085 19.8572 4.79853 19.8914 4.56238C20.0373 3.59254 20.7904 3.07518 21.7345 3.30051C21.9921 3.3618 22.1452 3.30051 22.2857 3.06436C22.7596 2.26577 23.6928 2.07469 24.4296 2.62631C24.6566 2.79756 24.8242 2.80477 25.0548 2.63172C25.7916 2.07649 26.7249 2.26037 27.1987 3.05895C27.3482 3.30952 27.5104 3.3618 27.7806 3.2951C28.6688 3.07337 29.4759 3.61778 29.5966 4.52273C29.6326 4.79132 29.7353 4.9085 30.011 4.94816C30.9424 5.07975 31.4684 5.87113 31.2432 6.7923C31.1802 7.05188 31.2378 7.20691 31.4738 7.34752C32.2882 7.83424 32.4683 8.75 31.899 9.52155C31.7351 9.74328 31.7459 9.90191 31.9062 10.1182C32.4701 10.8754 32.281 11.8019 31.463 12.2905C31.2378 12.4239 31.1802 12.5735 31.2378 12.8168C31.4612 13.7777 30.9604 14.5204 30.0001 14.6862C29.8794 14.7079 29.6975 14.7764 29.6687 14.8647C29.5353 15.2631 29.3624 15.6759 29.357 16.0851C29.3282 18.5295 29.3408 20.974 29.3462 23.4184C29.3462 23.7357 29.3408 24.0439 28.9967 24.1863C28.6598 24.3251 28.4256 24.1377 28.2004 23.9069C27.6347 23.3265 27.06 22.7586 26.4546 22.1529C26.26 22.3891 25.9412 22.6 25.9232 22.8325C25.8601 23.6708 25.8979 24.5144 25.8979 25.3815C26.0348 25.3869 26.1447 25.3977 26.2546 25.3977C27.9968 25.3977 29.7371 25.4013 31.4792 25.3977C32.6755 25.3959 33.3781 24.6821 33.3781 23.4761C33.3781 16.6728 33.3781 9.86766 33.3781 3.06436C33.3781 1.8818 32.6665 1.16253 31.4955 1.16253C22.0119 1.16253 12.5283 1.16253 3.04476 1.16253C1.86832 1.16253 1.15309 1.8782 1.15309 3.05535C1.15309 9.87127 1.15309 16.6854 1.15309 23.5013C1.15309 23.6473 1.15308 23.7951 1.17831 23.9394C1.34045 24.8587 2.04127 25.3995 3.07358 25.3995C8.63509 25.3995 14.1984 25.3995 19.7599 25.3995H20.1473L20.1491 25.3923ZM30.1515 6.44438C30.1515 6.19561 30.0236 6.11269 29.8164 6.07844C29.0201 5.95045 28.5931 5.52862 28.4652 4.75347C28.4111 4.42178 28.3084 4.35147 27.9878 4.42538C27.2239 4.60204 26.669 4.37491 26.26 3.72053C26.0709 3.41768 25.961 3.39605 25.6673 3.60516C25.044 4.04682 24.4458 4.04862 23.8297 3.61057C23.5252 3.39425 23.4207 3.41768 23.2172 3.74397C22.8352 4.35688 22.2443 4.60204 21.5417 4.4398C21.167 4.35327 21.0913 4.40375 21.0228 4.78231C20.8877 5.52501 20.4427 5.96667 19.7149 6.07844C19.3744 6.13071 19.3005 6.24248 19.378 6.58499C19.5455 7.3313 19.3149 7.89373 18.6808 8.28852C18.3637 8.48681 18.3439 8.59137 18.5691 8.90323C18.9942 9.49451 18.9942 10.1182 18.5691 10.7167C18.3457 11.0304 18.3655 11.1404 18.6771 11.3368C19.3185 11.7406 19.5419 12.2851 19.3726 13.0386C19.2969 13.3793 19.3636 13.4784 19.7131 13.5433C20.4877 13.6911 20.8931 14.0877 21.021 14.8755C21.0733 15.1946 21.2282 15.2631 21.5128 15.2018C22.2965 15.0323 22.8172 15.2505 23.2334 15.912C23.4135 16.1969 23.5396 16.2257 23.8027 16.0382C24.4657 15.5677 25.026 15.5659 25.6889 16.0418C25.9214 16.2077 26.0871 16.1878 26.2438 15.9391C26.6924 15.2306 27.1753 15.0305 27.9806 15.1982C28.303 15.2667 28.4129 15.1928 28.4652 14.8701C28.5895 14.1148 29.0057 13.6839 29.7461 13.5469C30.1443 13.473 30.1965 13.3937 30.1046 13.0043C29.9497 12.3355 30.1929 11.7226 30.755 11.3657C31.155 11.1133 31.164 11.0628 30.8865 10.6608C30.519 10.1291 30.5172 9.47828 30.8847 8.95551C31.1658 8.55531 31.1568 8.50304 30.7586 8.24886C30.2019 7.89373 29.9515 7.28983 30.0956 6.64448C30.1118 6.56876 30.1371 6.49305 30.1515 6.43897V6.44438ZM21.3147 27.9287L21.3867 27.9701C21.7777 27.57 22.165 27.1625 22.5614 26.7678C22.8658 26.4667 23.1631 26.4667 23.4766 26.7605C23.682 26.9534 23.8747 27.1571 24.0747 27.3554C24.2819 27.5609 24.4909 27.7646 24.7197 27.9882V23.934C24.4729 24.1917 24.2243 24.3089 23.9288 24.1755C23.6081 24.0295 23.5973 23.7357 23.5973 23.4292C23.6027 21.5166 23.5991 19.6021 23.5991 17.6895V17.3235C22.9631 17.2857 22.5199 17.0189 22.2245 16.4871C22.1704 16.3879 21.9939 16.3086 21.8732 16.3068C21.6894 16.3032 21.5056 16.3753 21.3129 16.4186V27.9323L21.3147 27.9287ZM24.7701 22.2773C25.1917 21.841 25.5538 21.4607 25.9195 21.0893C26.3393 20.6639 26.6023 20.6639 27.0239 21.0893C27.3896 21.4607 27.7464 21.8428 28.1085 22.2196L28.1769 22.1673V16.4222C27.7085 16.2563 27.3662 16.2365 27.0509 16.7557C26.6636 17.3938 25.761 17.4804 25.1322 17.0585C25.0242 16.9864 24.9197 16.9125 24.7701 16.8098V22.2755V22.2773Z" fill="#2680EB"/>
<path d="M3.4519 13.2711C3.4519 11.4126 3.4519 9.55401 3.4519 7.69365C3.45371 5.84591 4.66979 4.61828 6.51101 4.61468C9.82594 4.60927 13.1409 4.61468 16.4558 4.61468C16.5675 4.61468 16.681 4.61468 16.7909 4.63631C17.0827 4.694 17.2701 4.92834 17.2629 5.20776C17.2557 5.49078 17.0575 5.71251 16.7639 5.75217C16.6305 5.77019 16.4954 5.76659 16.3603 5.76659C13.112 5.76659 9.86556 5.76659 6.6173 5.76659C5.27151 5.76659 4.60312 6.43358 4.60312 7.77477C4.60312 11.4468 4.60312 15.1207 4.60312 18.7927C4.60312 20.0744 5.28232 20.7595 6.55064 20.7595C10.0223 20.7595 13.4958 20.7595 16.9674 20.7595C17.1134 20.7595 17.2611 20.7595 17.4016 20.7919C17.6917 20.8586 17.861 21.1038 17.8286 21.3922C17.7944 21.686 17.6268 21.8609 17.3332 21.9024C17.2449 21.915 17.153 21.9132 17.0647 21.9132C13.5354 21.9132 10.0079 21.9168 6.47858 21.9132C5.01029 21.9114 3.8915 21.0821 3.5564 19.7445C3.48434 19.4543 3.45912 19.1443 3.45731 18.8432C3.44831 16.9847 3.45371 15.1261 3.45371 13.2657L3.4519 13.2711Z" fill="#2680EB"/>
<path d="M11.5463 18.6954C10.7122 19.2794 10.1032 19.1641 8.98624 18.1924C8.53764 18.845 7.91249 19.265 7.18645 19.5462C6.83154 19.6832 6.55229 19.5913 6.40456 19.3065C6.24962 19.0072 6.36312 18.6846 6.6838 18.5133C6.95044 18.3709 7.22608 18.2429 7.48371 18.0843C7.95753 17.7904 8.18993 17.3488 8.21876 16.7917C8.23858 16.4186 8.40613 16.1987 8.70519 16.1644C9.03128 16.1266 9.23666 16.2978 9.34836 16.5935C9.53753 17.0946 9.85281 17.4948 10.305 17.7778C10.6311 17.9833 10.7644 17.9256 10.8239 17.5543C10.8689 17.2821 10.9986 17.0892 11.2743 17.0315C11.5625 16.972 11.7481 17.1126 11.9282 17.338C12.0868 17.5363 12.2976 17.7544 12.5264 17.8229C13.4722 18.1059 14.4324 18.3402 15.4341 18.3186C15.8503 18.3096 16.1169 18.5548 16.1133 18.9009C16.1097 19.2344 15.8485 19.4615 15.4521 19.4651C14.11 19.4795 12.8308 19.1749 11.5481 18.6954H11.5463Z" fill="#2680EB"/>
<path d="M10.9322 13.8516C9.65303 13.8516 8.3721 13.8534 7.09297 13.848C6.95065 13.848 6.79571 13.8353 6.6678 13.7813C6.41197 13.6695 6.30207 13.4478 6.35072 13.1756C6.39756 12.9034 6.57232 12.7321 6.85156 12.7087C7.07496 12.6888 7.30016 12.6997 7.52536 12.6997C9.90526 12.6997 12.2852 12.6997 14.6651 12.6997C14.7551 12.6997 14.8452 12.6979 14.9353 12.6997C15.2974 12.7159 15.5226 12.925 15.5316 13.2513C15.5424 13.592 15.3118 13.839 14.9407 13.8462C14.3228 13.8588 13.7066 13.8498 13.0887 13.8498C12.3698 13.8498 11.651 13.8498 10.934 13.8498L10.9322 13.8516Z" fill="#2680EB"/>
<path d="M10.9574 10.394C12.26 10.394 13.5607 10.3958 14.8633 10.3922C15.1317 10.3922 15.3533 10.4607 15.4776 10.7167C15.6325 11.0304 15.4776 11.3999 15.1353 11.5045C15.0092 11.5424 14.8705 11.546 14.7371 11.546C12.2005 11.5478 9.66386 11.546 7.12722 11.546C7.06057 11.546 6.99211 11.5496 6.92545 11.5442C6.55972 11.5135 6.32552 11.2683 6.34173 10.9367C6.35615 10.614 6.58495 10.3995 6.95067 10.3977C8.28565 10.3922 9.62243 10.3958 10.9574 10.3958V10.394Z" fill="#2680EB"/>
<path d="M10.9628 8.08483C12.2077 8.08483 13.4545 8.08483 14.6994 8.08483C14.8219 8.08483 14.948 8.07942 15.0687 8.10105C15.3443 8.15153 15.5029 8.32639 15.5263 8.60761C15.5497 8.88702 15.4254 9.09253 15.1624 9.18627C15.0398 9.22953 14.8993 9.23674 14.766 9.23674C12.2186 9.24035 9.67111 9.23854 7.12366 9.23674C7.01196 9.23674 6.89846 9.23494 6.79037 9.2097C6.50031 9.143 6.32736 8.90685 6.34358 8.62023C6.35979 8.3354 6.55976 8.12629 6.85703 8.09204C6.96872 8.07942 7.08042 8.08303 7.19392 8.08303C8.45143 8.08303 9.70714 8.08303 10.9646 8.08303L10.9628 8.08483Z" fill="#2680EB"/>
<path d="M24.761 14.4212C22.2154 14.4302 20.1544 12.3698 20.1508 9.81358C20.1472 7.2682 22.1884 5.20594 24.7178 5.19873C27.2761 5.18972 29.3371 7.23576 29.3443 9.78835C29.3515 12.3518 27.3139 14.4122 24.761 14.4212ZM24.7466 13.2639C26.6581 13.2639 28.1931 11.728 28.1949 9.80998C28.1949 7.89914 26.6527 6.34884 24.7502 6.35064C22.8459 6.35064 21.3056 7.89734 21.3038 9.80998C21.3038 11.728 22.8333 13.2639 24.7484 13.2639H24.7466Z" fill="#2680EB"/>
</svg>
