<svg width="32" height="31" viewBox="0 0 32 31" fill="none" xmlns="http://www.w3.org/2000/svg">
<path d="M32 23.4479C31.9198 23.8322 31.8564 24.2216 31.7562 24.6009C31.0098 27.4414 28.5166 29.6102 25.7196 29.9561C22.6002 30.342 19.6996 28.7196 18.3604 26.1264C18.2418 25.8975 18.0999 25.8557 17.8711 25.8557C12.6527 25.8607 7.43599 25.8641 2.21761 25.849C1.81349 25.849 1.37265 25.7772 1.01529 25.6017C0.310601 25.2558 0 24.6209 0 23.8356C0 21.1571 0 18.4787 0 15.8019C0 12.1544 0 8.50682 0 4.86094C0 3.52924 0.783176 2.74559 2.11407 2.74559C2.81042 2.74559 3.50676 2.74559 4.25153 2.74559C4.25153 2.33622 4.24151 1.94523 4.2532 1.55424C4.27991 0.752214 4.90111 0.0955528 5.70265 0.00866645C6.46245 -0.0732073 7.20722 0.433073 7.40427 1.18665C7.45937 1.39551 7.45937 1.61941 7.46772 1.83662C7.47774 2.12569 7.46939 2.41642 7.46939 2.72554H22.1527C22.1527 2.35627 22.1443 1.99703 22.1544 1.63612C22.1777 0.867505 22.6303 0.262642 23.3133 0.0671477C24.3252 -0.221917 25.3355 0.511605 25.3689 1.56761C25.3806 1.95024 25.3706 2.33288 25.3706 2.74559C26.1003 2.74559 26.795 2.74559 27.4896 2.74559C28.8406 2.74559 29.6221 3.52589 29.6221 4.87765C29.6221 8.94126 29.6221 13.0065 29.6187 17.0701C29.6187 17.3024 29.6738 17.4712 29.8475 17.6416C31.0265 18.8095 31.7261 20.2198 31.9399 21.8689C31.9516 21.9592 31.9783 22.0477 31.9983 22.1363V23.4496L32 23.4479ZM17.7926 24.8832C17.0479 21.7035 17.7876 18.9967 20.3776 17.0183C22.9776 15.0317 25.788 15.04 28.6535 16.624V16.2848C28.6535 13.9606 28.6485 11.6381 28.6602 9.31386C28.6602 9.02981 28.5868 8.94794 28.2962 8.94961C19.3089 8.95796 10.3232 8.95629 1.33591 8.95629H0.970202C0.970202 9.12338 0.970202 9.24703 0.970202 9.37068C0.970202 14.1327 0.970202 18.8948 0.970202 23.6551C0.970202 24.544 1.30919 24.8849 2.19089 24.8849C7.27235 24.8849 12.3538 24.8849 17.4353 24.8849H17.7909L17.7926 24.8832ZM31.0265 22.7512C31.0181 19.2774 28.2027 16.472 24.7393 16.4853C21.2626 16.5004 18.4739 19.3091 18.4856 22.7813C18.499 26.2417 21.296 29.0321 24.7527 29.0321C28.2194 29.0321 31.0331 26.2149 31.0248 22.7512H31.0265ZM22.1694 3.70134H21.7903C17.1364 3.70134 12.4807 3.70134 7.82675 3.70134C7.785 3.70134 7.74325 3.70635 7.70151 3.70134C7.51949 3.67962 7.46605 3.76817 7.46939 3.9386C7.47774 4.22934 7.47941 4.52175 7.46939 4.81415C7.43433 5.77993 6.74133 6.45831 5.81621 6.4416C4.92616 6.42489 4.25821 5.70641 4.25153 4.75567C4.24986 4.41481 4.25153 4.07395 4.25153 3.70301C3.50008 3.70301 2.78537 3.69967 2.06899 3.70301C1.35094 3.70802 0.976885 4.08731 0.973545 4.81081C0.970206 5.7699 0.971876 6.72732 0.973545 7.68642C0.973545 7.785 0.986905 7.88358 0.995255 7.97715H28.6419C28.6419 6.82256 28.6569 5.68636 28.6352 4.55349C28.6268 4.13076 28.2945 3.76316 27.862 3.74144C27.0454 3.69967 26.2255 3.72974 25.3789 3.72974C25.3789 3.99709 25.3906 4.25607 25.3756 4.51339C25.3605 4.79243 25.3639 5.08317 25.2837 5.3455C25.065 6.06565 24.3436 6.51178 23.5854 6.43492C22.8457 6.35973 22.2378 5.75486 22.1777 4.99127C22.146 4.57856 22.1727 4.1625 22.1727 3.70301L22.1694 3.70134ZM6.49752 3.23015C6.49752 2.73055 6.49919 2.23095 6.49752 1.73303C6.49418 1.25849 6.25372 0.979455 5.85295 0.981126C5.46887 0.981126 5.21839 1.25515 5.21505 1.70796C5.20837 2.71718 5.20837 3.72473 5.21505 4.73395C5.21839 5.18676 5.47221 5.45745 5.85796 5.45577C6.2437 5.4541 6.49084 5.17674 6.49585 4.72894C6.50086 4.22934 6.49585 3.73141 6.49585 3.23182L6.49752 3.23015ZM24.4037 3.2385C24.4037 2.72721 24.4087 2.21759 24.402 1.70629C24.3953 1.24847 24.1532 0.979455 23.7641 0.979455C23.3717 0.979455 23.1279 1.25181 23.1262 1.70295C23.1229 2.71384 23.1229 3.72473 23.1262 4.73562C23.1262 5.17674 23.3867 5.46747 23.7641 5.46914C24.1398 5.46914 24.3953 5.18676 24.402 4.73729C24.4104 4.23769 24.4037 3.73643 24.4037 3.23683V3.2385Z" fill="#2680EB"/>
<path d="M14.8285 19.503C15.3178 19.503 15.8071 19.4996 16.2964 19.503C16.6604 19.5063 16.8374 19.67 16.8407 20.0376C16.8508 20.9232 16.8508 21.8088 16.8407 22.6944C16.8374 23.0736 16.6571 23.2441 16.273 23.2457C15.2944 23.2508 14.3159 23.2508 13.3373 23.2457C12.9583 23.2441 12.7779 23.067 12.7746 22.6877C12.7662 21.8121 12.7662 20.9366 12.7746 20.0627C12.7779 19.6634 12.9533 19.5063 13.3607 19.503C13.85 19.4996 14.3393 19.503 14.8285 19.503ZM15.8538 22.2566V20.4788H13.7715V22.2566H15.8538Z" fill="#2680EB"/>
<path d="M14.7818 18.584C14.3026 18.584 13.8233 18.5873 13.3457 18.584C12.945 18.5806 12.7763 18.4169 12.773 18.0109C12.7663 17.147 12.7663 16.2815 12.773 15.4176C12.7763 15.015 12.9466 14.8495 13.3524 14.8462C14.3209 14.8395 15.2878 14.8412 16.2563 14.8462C16.6738 14.8479 16.8391 15.0166 16.8425 15.441C16.8491 16.2949 16.8491 17.1487 16.8425 18.0025C16.8391 18.4269 16.6755 18.5806 16.248 18.5823C15.7587 18.5856 15.2694 18.5823 14.7802 18.5823L14.7818 18.584ZM13.7632 17.6032H15.8589V15.8387H13.7632V17.6032Z" fill="#2680EB"/>
<path d="M14.8052 13.9439C14.3159 13.9439 13.8266 13.9472 13.3373 13.9439C12.9599 13.9389 12.7779 13.7685 12.7746 13.3892C12.7662 12.5136 12.7662 11.6381 12.7746 10.7642C12.7779 10.3699 12.9616 10.1994 13.3607 10.1994C14.3292 10.1961 15.2978 10.1961 16.2663 10.1994C16.6621 10.2011 16.8391 10.3732 16.8424 10.7726C16.8491 11.6381 16.8491 12.5019 16.8424 13.3674C16.8391 13.7835 16.6637 13.9439 16.2413 13.9472C15.762 13.9506 15.2827 13.9472 14.8035 13.9472L14.8052 13.9439ZM13.7698 11.1869V12.9531H15.8572V11.1869H13.7698Z" fill="#2680EB"/>
<path d="M4.77595 13.9439C4.2967 13.9439 3.81744 13.9472 3.33819 13.9439C2.92572 13.9406 2.7554 13.7668 2.75373 13.3474C2.75039 12.4936 2.75039 11.6381 2.75373 10.7842C2.7554 10.3732 2.9324 10.1994 3.34987 10.1978C4.30838 10.1944 5.2669 10.1944 6.22541 10.1978C6.64789 10.1978 6.81822 10.3665 6.81989 10.7809C6.82323 11.6464 6.82323 12.5103 6.81989 13.3758C6.81822 13.7735 6.64789 13.9406 6.24545 13.9456C5.75617 13.9506 5.2669 13.9456 4.77595 13.9456V13.9439ZM5.84635 12.9564V11.2003H3.76233V12.9564H5.84635Z" fill="#2680EB"/>
<path d="M24.8129 13.9439C24.3337 13.9439 23.8544 13.9472 23.3752 13.9439C22.9761 13.9406 22.8074 13.7718 22.8057 13.3691C22.8024 12.5036 22.8024 11.6397 22.8057 10.7742C22.8074 10.3732 22.9777 10.1994 23.3735 10.1978C24.352 10.1927 25.3323 10.1927 26.3108 10.1978C26.6849 10.1994 26.8669 10.3832 26.8702 10.7575C26.8752 11.6331 26.8752 12.5086 26.8702 13.3842C26.8686 13.7618 26.6882 13.9389 26.3125 13.9439C25.8132 13.9506 25.3122 13.9439 24.8129 13.9439ZM23.7809 12.9547H25.875V11.202H23.7809V12.9547Z" fill="#2680EB"/>
<path d="M9.7871 13.9439C9.30785 13.9439 8.82859 13.9473 8.34933 13.9439C7.93854 13.9406 7.7632 13.7668 7.75986 13.3491C7.75485 12.4953 7.75485 11.6398 7.75986 10.7859C7.76153 10.3732 7.94188 10.1978 8.35601 10.1961C9.31452 10.1928 10.273 10.1928 11.2299 10.1961C11.654 10.1961 11.8244 10.3615 11.826 10.7776C11.831 11.6431 11.831 12.507 11.826 13.3725C11.8244 13.7735 11.654 13.9406 11.2533 13.9439C10.764 13.9489 10.2747 13.9439 9.78543 13.9439H9.7871ZM8.76346 11.192V12.9464H10.8508V11.192H8.76346Z" fill="#2680EB"/>
<path d="M19.8232 13.9439C19.3339 13.9439 18.8446 13.9472 18.3554 13.9439C17.973 13.9389 17.801 13.7718 17.7976 13.3908C17.7909 12.5153 17.7926 11.6397 17.7976 10.7642C17.7993 10.3665 17.973 10.1994 18.3754 10.1978C19.3439 10.1944 20.3125 10.1944 21.281 10.1978C21.6768 10.1994 21.8604 10.3765 21.8621 10.7692C21.8688 11.6347 21.8688 12.4986 21.8621 13.3641C21.8588 13.7718 21.6784 13.9422 21.2593 13.9439C20.78 13.9472 20.3008 13.9439 19.8215 13.9439H19.8232ZM20.8652 12.9564V11.202H18.7695V12.9564H20.8652Z" fill="#2680EB"/>
<path d="M4.8058 19.503C5.29507 19.503 5.78435 19.4996 6.27363 19.503C6.63933 19.5063 6.81467 19.6734 6.81634 20.0343C6.82135 20.9199 6.82135 21.8055 6.81634 22.691C6.81467 23.067 6.63933 23.2408 6.25526 23.2441C5.27671 23.2491 4.29648 23.2491 3.31793 23.2441C2.94054 23.2424 2.75518 23.0586 2.75351 22.6894C2.7485 21.8138 2.7485 20.9383 2.75351 20.0627C2.75518 19.6701 2.93219 19.5046 3.3363 19.5013C3.82558 19.498 4.31485 19.5013 4.80413 19.5013L4.8058 19.503ZM3.7521 22.2516H5.83779V20.4804H3.7521V22.2516Z" fill="#2680EB"/>
<path d="M9.78389 23.2474C9.32634 23.2474 8.86712 23.2491 8.40958 23.2474C7.93366 23.2458 7.76333 23.0803 7.76166 22.6142C7.75832 21.7804 7.75832 20.9466 7.76166 20.1128C7.76333 19.6701 7.92865 19.5046 8.36115 19.503C9.31966 19.5013 10.2765 19.5013 11.235 19.503C11.6625 19.503 11.8262 19.66 11.8278 20.0811C11.8328 20.9466 11.8328 21.8105 11.8278 22.676C11.8245 23.0753 11.6542 23.2424 11.2517 23.2474C10.7624 23.2524 10.2732 23.2474 9.78389 23.2474ZM8.75023 22.2432H10.8459V20.4871H8.75023V22.2432Z" fill="#2680EB"/>
<path d="M9.79732 18.584C9.31806 18.584 8.8388 18.5873 8.36122 18.584C7.9354 18.5806 7.76507 18.4202 7.76173 18.0058C7.75672 17.142 7.75505 16.2765 7.76173 15.4126C7.76507 15.0317 7.93874 14.8512 8.31613 14.8479C9.3047 14.8412 10.2933 14.8412 11.2835 14.8479C11.6526 14.8512 11.8246 15.0216 11.8279 15.3842C11.8346 16.2698 11.8346 17.1554 11.8279 18.0409C11.8246 18.4236 11.6576 18.5806 11.2651 18.584C10.7759 18.589 10.2866 18.584 9.79732 18.584ZM10.8427 17.6199V15.837H8.76533V17.6199H10.8427Z" fill="#2680EB"/>
<path d="M4.81081 18.584C4.31151 18.584 3.81055 18.5873 3.31125 18.584C2.93052 18.579 2.75518 18.4085 2.75351 18.0309C2.7485 17.1554 2.7485 16.2815 2.75351 15.4059C2.75518 15.03 2.93219 14.8512 3.31292 14.8495C4.29147 14.8429 5.27003 14.8429 6.24858 14.8495C6.65102 14.8529 6.81634 15.0233 6.81801 15.4243C6.82135 16.2882 6.82135 17.1537 6.81801 18.0176C6.81634 18.4202 6.65269 18.5806 6.24691 18.5857C5.76765 18.5907 5.28839 18.5857 4.81081 18.5857V18.584ZM3.75043 15.837V17.6082H5.84614V15.837H3.75043Z" fill="#2680EB"/>
<path d="M25.2436 22.27C25.6611 22.27 26.0334 22.2666 26.4058 22.27C26.7882 22.2733 27.0003 22.4504 27.002 22.7579C27.002 23.0653 26.7899 23.2441 26.4092 23.2458C25.8998 23.2491 25.3905 23.2491 24.8812 23.2458C24.4437 23.2424 24.2684 23.0753 24.2667 22.6426C24.2617 21.6651 24.2617 20.6876 24.2667 19.7085C24.2684 19.3292 24.4571 19.1203 24.7677 19.127C25.0649 19.1337 25.2402 19.3392 25.2436 19.7018C25.2486 20.4303 25.2436 21.1588 25.2436 21.8857C25.2436 21.9993 25.2436 22.1112 25.2436 22.2666V22.27Z" fill="#2680EB"/>
<path d="M19.8266 23.2591C19.7231 23.2458 19.6062 23.2458 19.4993 23.2124C19.2455 23.1305 19.1437 22.94 19.1771 22.681C19.2155 22.3819 19.4259 22.2666 19.9018 22.2716C20.2742 22.275 20.4679 22.402 20.513 22.6693C20.558 22.9283 20.4278 23.1505 20.174 23.2207C20.0654 23.2508 19.9502 23.2491 19.8266 23.2625V23.2591Z" fill="#2680EB"/>
<path d="M25.2418 17.8738C25.2602 18.1462 25.2067 18.3902 24.9312 18.4954C24.7208 18.5756 24.5204 18.5305 24.3734 18.3417C24.2165 18.1395 24.2148 17.5647 24.3718 17.3609C24.5171 17.1704 24.7208 17.127 24.9295 17.2055C25.2384 17.3225 25.2618 17.5981 25.2435 17.8738H25.2418Z" fill="#2680EB"/>
<path d="M29.5636 23.2474C29.5486 23.2458 29.4417 23.2474 29.3432 23.2207C29.0693 23.1472 28.9274 22.8849 29.0059 22.6142C29.0843 22.3435 29.3248 22.2416 29.8174 22.27C30.0846 22.285 30.2783 22.3953 30.3334 22.6727C30.4069 23.0336 30.1481 23.2491 29.5636 23.2474Z" fill="#2680EB"/>
<path d="M25.2435 27.7221C25.2586 27.9677 25.2068 28.21 24.9296 28.3169C24.7192 28.3971 24.5188 28.352 24.3718 28.1649C24.2149 27.9644 24.2149 27.3879 24.3702 27.1841C24.5155 26.9936 24.7142 26.9602 24.9279 27.0253C25.16 27.0972 25.2452 27.2977 25.2419 27.7221H25.2435Z" fill="#2680EB"/>
<path d="M21.433 25.6184C21.7252 25.6218 21.949 25.8707 21.9123 26.1514C21.8805 26.3954 21.4681 26.8114 21.2193 26.8515C20.9304 26.8983 20.6782 26.6928 20.6665 26.4004C20.6532 26.0896 21.1207 25.6151 21.433 25.6184Z" fill="#2680EB"/>
<path d="M28.8573 19.1571C28.8473 19.4512 28.3713 19.9073 28.0791 19.904C27.7952 19.9006 27.5932 19.6834 27.6082 19.3994C27.6249 19.1003 28.1058 18.6508 28.3931 18.6658C28.6536 18.6792 28.8656 18.9048 28.8573 19.1587V19.1571Z" fill="#2680EB"/>
<path d="M21.9156 19.5264C21.8655 19.5932 21.7937 19.7753 21.6668 19.8305C21.5265 19.8923 21.3094 19.8906 21.1758 19.8188C21.0021 19.7252 20.8519 19.5564 20.7383 19.3877C20.5329 19.0836 20.7617 18.6775 21.1257 18.6659C21.428 18.6558 21.9206 19.132 21.9156 19.5264Z" fill="#2680EB"/>
<path d="M28.0857 25.6168C28.378 25.6168 28.8522 26.0829 28.8572 26.372C28.8606 26.6377 28.6234 26.8683 28.3546 26.8582C28.0574 26.8482 27.6015 26.377 27.6065 26.0846C27.6115 25.8156 27.8169 25.6151 28.0857 25.6168Z" fill="#2680EB"/>
</svg>
